<!-- Generated by IcoMoon.io -->
<svg version="1.1" xmlns="http://www.w3.org/2000/svg" width="32" height="32" viewBox="0 0 32 32">
<title>flipside-dark</title>
<path fill="#121212" d="M16 0.114c-8.773 0-15.886 7.112-15.886 15.886s7.113 15.886 15.886 15.886 15.886-7.113 15.886-15.886-7.112-15.886-15.886-15.886zM12.15 23.085c-0.765 0.224-1.642-0.468-1.958-1.547s0.045-2.136 0.809-2.36 1.642 0.468 1.958 1.547-0.045 2.135-0.809 2.36zM21.916 21.534c-0.313 1.079-1.188 1.775-1.952 1.552s-1.13-1.278-0.817-2.357 1.188-1.775 1.952-1.553 1.131 1.278 0.817 2.358zM24.356 11.070c-0.026-0.008-0.409-0.135-0.903-0.565-0.894 0.859-3.348 2.88-6.83 3.099-0.203 0.013-0.406 0.020-0.608 0.020-2.777 0-5.546-1.192-8.243-3.549-0.253 0.188-0.539 0.364-0.84 0.514l-0.033 0.015-0.231-0.464c1.326-0.659 1.632-1.388 1.637-1.396l0.483 0.187c-0.009 0.023-0.146 0.369-0.612 0.807 2.765 2.397 5.594 3.524 8.409 3.35 3.268-0.203 5.638-2.137 6.496-2.948-0.217-0.24-0.416-0.504-0.591-0.785l-0.014-0.023 0.44-0.273c0.202 0.327 0.425 0.611 0.677 0.867l-0.001-0.001c0.078 0.078 0.153 0.147 0.224 0.208 0.398 0.34 0.694 0.443 0.698 0.445z"></path>
<path fill="#fcee21" d="M23.822 10.125c-0.002 0.002-0.004 0.004-0.005 0.007l-0 0c-0.072-0.061-0.147-0.13-0.224-0.208z"></path>
</svg>
