<?xml version="1.0" encoding="utf-8"?>
<!-- Generator: Adobe Illustrator 27.0.1, SVG Export Plug-In . SVG Version: 6.00 Build 0)  -->
<svg version="1.1" id="Layer_1" xmlns="http://www.w3.org/2000/svg" xmlns:xlink="http://www.w3.org/1999/xlink" x="0px" y="0px"
	 viewBox="0 0 48 48" style="enable-background:new 0 0 48 48;" xml:space="preserve">
<g>
	<path d="M22.5,0.1c1,0,2,0,3,0c0.1,0,0.2,0.1,0.4,0.1c3.7,0.3,7.2,1.3,10.4,3.3c6.2,3.8,10,9.3,11.3,16.4c0.2,0.9,0.2,1.7,0.4,2.6
		c0,1,0,2,0,3c0,0.3-0.1,0.6-0.1,0.9c-0.5,4.7-2.2,9-5.2,12.6c-3.8,4.6-8.6,7.4-14.4,8.5c-0.9,0.2-1.8,0.2-2.7,0.4c-1,0-2,0-3,0
		c-0.6-0.1-1.2-0.1-1.7-0.2c-4.4-0.6-8.4-2.3-11.8-5.1C4.4,38.8,1.5,34,0.5,28.2c-0.2-0.9-0.2-1.8-0.4-2.7c0-1,0-2,0-3
		c0-0.3,0.1-0.6,0.1-0.9C0.8,16.5,2.7,12,6.1,8.2C9.8,4,14.4,1.4,19.9,0.5C20.8,0.3,21.6,0.2,22.5,0.1z M24,10.2c0,0.1,0,0.1,0,0.2
		c-2,0-4,0-5.9,0c-1.6,0-3.1,0.4-4.5,1.3c-2.2,1.5-3.2,3.7-3.3,6.3c-0.1,4-0.1,8,0,11.9c0,1.6,0.4,3,1.3,4.4
		c1.5,2.2,3.7,3.2,6.3,3.3c4,0.1,8,0.1,11.9,0c2.2,0,4.2-0.8,5.7-2.4c1.4-1.5,1.9-3.3,2-5.3c0.1-3.3,0.1-6.5,0.1-9.8
		c0-1-0.1-1.9-0.2-2.9c-0.4-3.7-3-6.4-6.7-6.7C28.6,10.3,26.3,10.3,24,10.2z"/>
	<path d="M24,35.3c-2.1-0.1-4.2-0.1-6.2-0.2c-2.9-0.2-4.8-2-4.9-4.9c-0.1-4.2-0.1-8.4,0-12.5c0-1.8,0.9-3.3,2.5-4.2
		c0.9-0.5,2-0.7,3-0.7c3.9,0,7.9,0,11.8,0.1c2.9,0.1,4.8,2,4.9,4.9c0.1,4.2,0.1,8.3,0,12.5c-0.1,2.9-2,4.7-4.9,4.9
		c-1,0.1-2.1,0.1-3.1,0.1C26.1,35.2,25,35.2,24,35.3C24,35.2,24,35.3,24,35.3z M31.1,23.9c0-3.9-3.2-7.1-7.1-7.1
		c-3.9,0-7.1,3.2-7.1,7.1c0,3.9,3.2,7.1,7.1,7.1C27.9,31,31.1,27.8,31.1,23.9z M33,16.6c0-0.9-0.7-1.6-1.6-1.6
		c-0.9,0-1.7,0.7-1.7,1.6c0,0.9,0.7,1.6,1.6,1.6C32.3,18.2,33,17.5,33,16.6z"/>
	<path d="M24,19.4c2.5,0,4.6,2,4.6,4.6c0,2.5-2.1,4.6-4.6,4.6c-2.5,0-4.6-2.1-4.6-4.6C19.4,21.5,21.5,19.4,24,19.4z"/>
</g>
</svg>
