<?xml version="1.0" encoding="utf-8"?>
<!-- Generator: Adobe Illustrator 27.0.1, SVG Export Plug-In . SVG Version: 6.00 Build 0)  -->
<svg version="1.1" id="Layer_1" xmlns="http://www.w3.org/2000/svg" xmlns:xlink="http://www.w3.org/1999/xlink" x="0px" y="0px"
	 viewBox="0 0 48 48" style="enable-background:new 0 0 48 48;" xml:space="preserve">
<g>
	<path d="M22.6,0c1,0,1.9,0,2.9,0c0.1,0,0.2,0.1,0.4,0.1c3.6,0.3,7,1.3,10.1,3.1c6.4,3.8,10.3,9.4,11.7,16.7
		c0.2,0.9,0.2,1.8,0.4,2.6c0,1,0,1.9,0,2.9c0,0.2-0.1,0.3-0.1,0.5c-0.1,0.9-0.2,1.9-0.4,2.8c-1.9,9.7-9.7,17.3-19.4,19
		c-0.9,0.1-1.8,0.2-2.6,0.4c-1,0-2,0-3,0c-0.1,0-0.2-0.1-0.3-0.1c-2-0.1-4-0.5-5.9-1.2c-8.7-3.2-14-9.4-15.9-18.5
		c-0.2-0.9-0.3-1.8-0.4-2.7c0-1,0-2,0-3c0.1-0.9,0.2-1.8,0.4-2.6C2,10.1,9.7,2.3,19.3,0.5C20.4,0.2,21.5,0.1,22.6,0z M38.4,9.6
		c-0.1,0-0.2,0-0.3,0c-8.7,0-17.5,0-26.2,0c-0.3,0-0.4,0.1-0.5,0.4c-0.6,1.5-1.1,3-1.7,4.5c-0.1,0.2-0.1,0.5-0.1,0.8
		c0,6.6,0,13.3,0,19.9c0,0.2,0,0.3,0,0.6c2.4,0,4.8,0,7.2,0c0,1.3,0,2.6,0,3.9c1.2,0,2.4,0,3.5,0c0.2,0,0.5-0.1,0.6-0.3
		c1.1-1,2.1-2.1,3.2-3.2c0.3-0.3,0.7-0.5,1.1-0.5c1.6,0,3.1,0,4.7,0c0.4,0,0.7-0.1,0.9-0.4c2.3-2.4,4.7-4.7,7.1-7.1
		c0.3-0.3,0.4-0.5,0.4-0.9c0-5.7,0-11.4,0-17.2C38.4,10,38.4,9.8,38.4,9.6z"/>
	<path d="M35.8,12.2c0,0.2,0,0.3,0,0.5c0,4.5,0,8.9,0,13.4c0,0.2-0.1,0.6-0.3,0.7c-1.3,1.3-2.6,2.6-3.9,3.9
		c-0.2,0.3-0.5,0.4-0.9,0.4c-2,0-4.1,0-6.1,0c-0.5,0-0.8,0.1-1.1,0.5c-1.1,1.1-2.2,2.3-3.5,3.5c0-1.4,0-2.6,0-3.9c-2,0-3.9,0-5.9,0
		c0-6.3,0-12.6,0-18.9C21.4,12.2,28.6,12.2,35.8,12.2z M24,25.2c0-2.6,0-5.2,0-7.8c-0.9,0-1.7,0-2.6,0c0,2.6,0,5.2,0,7.8
		C22.3,25.2,23.1,25.2,24,25.2z M31.2,25.2c0-2.6,0-5.2,0-7.8c-0.9,0-1.7,0-2.6,0c0,2.6,0,5.2,0,7.8C29.5,25.2,30.3,25.2,31.2,25.2z
		"/>
</g>
</svg>
