<?xml version="1.0" encoding="utf-8"?>
<!-- Generator: Adobe Illustrator 27.0.1, SVG Export Plug-In . SVG Version: 6.00 Build 0)  -->
<svg version="1.1" id="Layer_1" xmlns="http://www.w3.org/2000/svg" xmlns:xlink="http://www.w3.org/1999/xlink" x="0px" y="0px"
	 viewBox="0 0 48 48" style="enable-background:new 0 0 48 48;" xml:space="preserve">
<g>
	<path d="M25.5,48c-1,0-2,0-3,0c-0.6-0.1-1.2-0.1-1.8-0.2c-4.8-0.7-9-2.6-12.6-5.8C4,38.3,1.4,33.7,0.4,28.2
		c-0.2-0.9-0.3-1.8-0.4-2.7c0-1,0-2,0-3c0.1-0.6,0.1-1.2,0.2-1.8C1,15.5,3.2,11,6.9,7.2c3.6-3.7,7.9-6,13-6.8
		c0.9-0.2,1.8-0.2,2.6-0.4c1,0,2,0,3,0c0.8,0.1,1.6,0.2,2.4,0.3c4.6,0.8,8.6,2.7,12,5.8c4.1,3.7,6.7,8.3,7.7,13.8
		c0.2,0.9,0.2,1.8,0.4,2.6c0,1,0,2,0,3c0,0.1-0.1,0.2-0.1,0.4c-0.3,3.7-1.3,7.2-3.3,10.3c-3.8,6.2-9.3,10.1-16.5,11.4
		C27.3,47.8,26.4,47.9,25.5,48z M13.5,26.3c0.9,2.4,2.6,3.6,5.1,3.9c-2.4,1.8-5,2.5-8.1,2.3c0.3,0.2,0.4,0.3,0.5,0.3
		c3.2,1.9,6.7,2.5,10.4,1.9c8.2-1.2,12.8-8.2,13.1-14.7c0.1-1.1,0.2-1.9,1.1-2.5c0.5-0.4,0.9-1,1.3-1.4c0.1-0.1,0.1-0.2,0.2-0.3
		c-1,0.3-1.9,0.5-2.8,0.8c0,0,0-0.1-0.1-0.1c1-0.7,1.8-1.6,2.2-2.8c-1,0.4-2,0.7-3,1.1c-0.3,0.1-0.5,0-0.7-0.2
		c-1.7-1.5-3.6-1.9-5.7-1.1c-2.1,0.8-3.3,2.4-3.5,4.6c-0.1,0.6,0,1.2,0,1.8c-4.6-0.3-8.3-2.3-11.3-5.7C11.9,15,11.6,16,11.7,17
		c0.1,1.8,0.9,3.2,2.3,4.3c0,0-0.1,0.1-0.1,0.1c-0.8-0.2-1.5-0.4-2.3-0.6c0.2,2.7,1.6,4.5,4.2,5.4c0,0,0,0.1,0,0.1
		C15.1,26.3,14.3,26.3,13.5,26.3z"/>
</g>
</svg>
